<svg xmlns="http://www.w3.org/2000/svg" aria-hidden="true"
    style="position:absolute;width:0;height:0;overflow:hidden">
    <defs>
        <symbol id="icon-Arrow-right" viewBox="0 0 53 32">
            <path fill="none" stroke="#eff3f5" stroke-width="5.333"
                d="M-25.334 15.999h73.335m0 .001L34.684 29.317M48.001 16 34.684 2.683"
                style="stroke:var(--color1, #eff3f5)" />
        </symbol>
        <symbol id="icon-Arrow-left" viewBox="0 0 53 32">
            <path fill="none" stroke="#eff3f5" stroke-width="5.333"
                d="M78.667 15.999H5.332m0 .001 13.317 13.317M5.332 16 18.649 2.683"
                style="stroke:var(--color1, #eff3f5)" />
        </symbol>
        <symbol id="icon-Clover" viewBox="0 0 31 32">
            <path
                d="M23.067 8.236c1.553 1.553 1.553 4.072 0 5.625-0.64 0.64-1.445 1.017-2.278 1.129-1.864 0.251-4.127 0.119-5.457 1.449s-1.198 3.593-1.449 5.457c-0.112 0.833-0.489 1.638-1.129 2.278-1.553 1.553-4.072 1.553-5.625 0s-1.553-4.072 0-5.625c0.64-0.64 1.445-1.017 2.278-1.129 1.864-0.251 4.127-0.119 5.457-1.449s1.198-3.593 1.449-5.457c0.112-0.833 0.489-1.638 1.129-2.278 1.553-1.553 4.072-1.553 5.625 0z"></path>
            <path
                d="M23.067 24.174c-1.553 1.553-4.072 1.553-5.625 0-0.64-0.64-1.017-1.445-1.129-2.278-0.251-1.864-0.119-4.127-1.449-5.457s-3.593-1.198-5.457-1.449c-0.833-0.112-1.638-0.489-2.278-1.129-1.553-1.553-1.553-4.072 0-5.625s4.072-1.553 5.625 0c0.64 0.64 1.017 1.445 1.129 2.278 0.251 1.864 0.119 4.127 1.449 5.457s3.593 1.198 5.457 1.449c0.833 0.112 1.638 0.489 2.278 1.129 1.553 1.553 1.553 4.072 0 5.625z"></path>
        </symbol>
        <symbol id="icon-Union" viewBox="0 0 146 32">
            <path
                d="M129.778 0c8.837 0 16 7.163 16 16s-7.163 16-16 16c-3.785 0-7.263-1.315-10.002-3.512-5.57-4.469-11.301-10.71-18.442-10.71s-12.873 6.241-18.442 10.71c-2.739 2.197-6.217 3.512-10.002 3.512s-7.263-1.315-10.002-3.512c-5.57-4.469-11.301-10.71-18.442-10.71s-12.873 6.241-18.442 10.71c-2.739 2.197-6.217 3.512-10.002 3.512-8.837 0-16-7.163-16-16s7.163-16 16-16c3.785 0 7.263 1.315 10.002 3.512 5.57 4.469 11.301 10.71 18.442 10.71s12.873-6.241 18.442-10.71c2.739-2.197 6.217-3.512 10.002-3.512s7.263 1.315 10.002 3.512c5.57 4.469 11.301 10.71 18.442 10.71s12.873-6.241 18.442-10.71c2.739-2.197 6.217-3.512 10.002-3.512z"></path>
        </symbol>
        <symbol id="icon-tt" viewBox="0 0 32 32">
            <path fill="#0a0f13" style="fill: var(--color1, #0a0f13)"
                d="M16 0c8.837 0 16 7.163 16 16s-7.163 16-16 16c-8.837 0-16-7.163-16-16s7.163-16 16-16z"></path>
            <path fill="#eff3f5" style="fill: var(--color2, #eff3f5)"
                d="M18.612 13.611c-0.054-0.029-0.107-0.061-0.158-0.096-0.149-0.102-0.285-0.223-0.406-0.359-0.303-0.36-0.416-0.726-0.457-0.981h0.002c-0.035-0.212-0.020-0.35-0.018-0.35h-1.378v5.544c0 0.074 0 0.148-0.003 0.221 0 0.009-0.001 0.017-0.001 0.027 0 0.004 0 0.008-0.001 0.012 0 0.001 0 0.002 0 0.003-0.015 0.199-0.076 0.391-0.178 0.559s-0.244 0.308-0.41 0.407c-0.174 0.103-0.37 0.157-0.57 0.157-0.642 0-1.163-0.545-1.163-1.217s0.521-1.217 1.163-1.217c0.122-0 0.242 0.020 0.358 0.059l0.002-1.46c-0.351-0.047-0.707-0.018-1.047 0.085s-0.655 0.279-0.926 0.515c-0.238 0.215-0.437 0.471-0.59 0.757-0.058 0.104-0.278 0.524-0.304 1.204-0.017 0.386 0.095 0.786 0.148 0.952v0.003c0.033 0.097 0.163 0.43 0.374 0.71 0.17 0.225 0.371 0.422 0.597 0.586v-0.003l0.003 0.003c0.667 0.472 1.407 0.441 1.407 0.441 0.128-0.005 0.557 0 1.044-0.24 0.54-0.266 0.848-0.663 0.848-0.663 0.197-0.237 0.353-0.507 0.462-0.799 0.125-0.341 0.166-0.75 0.166-0.914v-2.941c0.017 0.010 0.239 0.164 0.239 0.164s0.321 0.214 0.822 0.353c0.359 0.099 0.843 0.12 0.843 0.12v-1.423c-0.17 0.019-0.514-0.037-0.866-0.219z"></path>
        </symbol>
        <symbol id="icon-fb" viewBox="0 0 32 32">
            <path fill="#0a0f13" style="fill: var(--color1, #0a0f13)"
                d="M16 0c8.837 0 16 7.163 16 16s-7.163 16-16 16c-8.837 0-16-7.163-16-16s7.163-16 16-16z"></path>
            <path fill="#eff3f5" style="fill: var(--color2, #eff3f5)"
                d="M17.325 13.212h0.762v-1.327c-0.131-0.018-0.584-0.059-1.11-0.059-1.099 0-1.851 0.691-1.851 1.961v1.169h-1.212v1.484h1.212v3.734h1.486v-3.733h1.163l0.185-1.484h-1.348v-1.022c0-0.429 0.116-0.722 0.713-0.722z"></path>
        </symbol>
        <symbol id="icon-yt" viewBox="0 0 32 32">
            <path fill="#0a0f13" style="fill: var(--color1, #0a0f13)"
                d="M16 0c8.837 0 16 7.163 16 16s-7.163 16-16 16c-8.837 0-16-7.163-16-16s7.163-16 16-16z"></path>
            <path fill="#eff3f5" style="fill: var(--color2, #eff3f5)"
                d="M16.001 12.87c0.017 0 1.683 0.011 2.787 0.090l0.015 0.001c0.012 0.002 0.026 0.004 0.041 0.005 0.183 0.021 0.564 0.063 0.899 0.417 0.291 0.301 0.361 0.893 0.368 0.96l0.001 0.003c0.003 0.028 0.061 0.687 0.061 1.349v0.619c0 0.662-0.059 1.321-0.061 1.349l-0.001 0.008c-0.008 0.065-0.088 0.645-0.365 0.942-0.332 0.362-0.706 0.401-0.887 0.42-0.017 0.002-0.033 0.004-0.047 0.005l-0.015 0.001c-1.104 0.079-2.77 0.090-2.787 0.090h-0.005c-0.085-0.001-2.083-0.031-2.72-0.091l-0.019-0.003c-0.020-0.003-0.050-0.006-0.084-0.010-0.215-0.024-0.614-0.070-0.929-0.412-0.289-0.301-0.36-0.881-0.367-0.948l-0.001-0.004c-0.002-0.028-0.061-0.687-0.061-1.349v-0.619c0-0.662 0.059-1.321 0.061-1.349l0.001-0.008c0.008-0.065 0.088-0.644 0.365-0.942 0.337-0.367 0.714-0.41 0.895-0.431 0.014-0.002 0.027-0.003 0.039-0.005l0.015-0.001c1.114-0.079 2.78-0.090 2.797-0.090h0.003zM15.389 14.752c-0.112-0.056-0.244-0.054-0.353 0.005s-0.175 0.164-0.175 0.28v1.925c0 0.116 0.065 0.221 0.174 0.28 0.057 0.031 0.12 0.047 0.183 0.047 0.058 0 0.116-0.013 0.169-0.039l1.942-0.954c0.115-0.057 0.188-0.166 0.188-0.285s-0.071-0.23-0.185-0.287l-1.943-0.971z"></path>
        </symbol>
        <symbol id="icon-in" viewBox="0 0 32 32">
            <path fill="#0a0f13" style="fill: var(--color1, #0a0f13)"
                d="M0 16c0-8.837 7.163-16 16-16s16 7.163 16 16c0 8.837-7.163 16-16 16s-16-7.163-16-16z"></path>
            <path fill="#eff3f5" style="fill: var(--color2, #eff3f5)"
                d="M16.001 11.826c1.087 0 1.227 0.005 1.66 0.025 0.442 0.020 0.751 0.091 1.024 0.197 0.288 0.109 0.551 0.28 0.768 0.499l-0.12 0.122 0.122-0.12 0.079 0.082c0.183 0.2 0.325 0.432 0.421 0.687 0.106 0.272 0.178 0.584 0.198 1.025 0.019 0.431 0.020 0.571 0.020 1.657 0 1.088-0.005 1.227-0.024 1.658-0.019 0.442-0.091 0.751-0.197 1.025-0.225 0.583-0.687 1.044-1.27 1.27-0.273 0.106-0.584 0.178-1.026 0.197-0.431 0.019-0.57 0.024-1.658 0.024s-1.227-0.005-1.658-0.024c-0.442-0.019-0.752-0.091-1.025-0.197-0.288-0.109-0.551-0.28-0.768-0.5l0.121-0.122-0.122 0.12 0.001 0.001c-0.22-0.217-0.392-0.479-0.502-0.77-0.106-0.272-0.178-0.583-0.197-1.024-0.019-0.431-0.024-0.57-0.024-1.658s0.005-1.227 0.025-1.659c0.020-0.442 0.091-0.751 0.197-1.024 0.095-0.252 0.238-0.485 0.42-0.685l0.079-0.082 0.123 0.12-0.121-0.122c0.217-0.222 0.478-0.391 0.769-0.501 0.272-0.106 0.584-0.178 1.025-0.197 0.431-0.019 0.57-0.024 1.658-0.024zM16 14.023c-1.091 0-1.977 0.886-1.977 1.977s0.886 1.977 1.977 1.978c1.092 0 1.978-0.886 1.978-1.978s-0.886-1.977-1.978-1.977zM18.416 12.704c-0.485 0-0.878 0.393-0.878 0.878s0.393 0.879 0.878 0.879c0.485 0 0.879-0.394 0.879-0.879s-0.394-0.878-0.879-0.878z"></path>
        </symbol>
        <symbol id="icon-Phone" viewBox="0 0 32 32">
            <path
                d="M3.214 0.001c-0.446 0.001-0.888 0.092-1.297 0.272s-0.775 0.443-1.076 0.772c-0.301 0.329-0.531 0.718-0.674 1.141s-0.194 0.871-0.154 1.315c0.528 4.963 2.221 9.733 4.94 13.922 2.47 3.88 5.767 7.169 9.654 9.634 4.178 2.704 8.933 4.394 13.884 4.931 0.446 0.040 0.897-0.013 1.322-0.156s0.815-0.374 1.145-0.676c0.33-0.302 0.593-0.671 0.772-1.080s0.272-0.852 0.27-1.299v-4.817c0.020-0.787-0.253-1.555-0.763-2.156s-1.223-0.995-2.005-1.105c-1.545-0.203-3.062-0.579-4.522-1.123-0.576-0.216-1.202-0.264-1.803-0.136s-1.154 0.428-1.592 0.859l-2.042 2.038c-4.028-2.286-7.364-5.614-9.654-9.634l2.045-2.040c0.432-0.436 0.729-0.987 0.857-1.587s0.083-1.227-0.134-1.801c-0.545-1.457-0.924-2.97-1.127-4.511-0.109-0.772-0.495-1.478-1.087-1.987s-1.349-0.782-2.129-0.775h-4.828z"></path>
        </symbol>
        <symbol id="card-bottom" viewBox="0 0 440 32">
            <path fill="#eff3f5" style="fill: var(--color1, #eff3f5)"
                d="M1.455 1.939l-0.485-0.97h426.667l-0.97 0.97-1.455 3.879-0.97 1.939 1.939 1.939h-1.455v0.97l-0.97 0.485h-0.97c0.162 0.323 0.388 0.97 0 0.97h-2.424l-0.485-0.97-0.485 0.485-1.455 0.485v0.485l0.97 0.485-0.485 1.455-0.97-0.485h-0.97v0.485l0.97 0.485-1.455 0.485-0.97-0.485h-1.455l-0.97 0.485-0.485-0.485-1.939-0.485-0.97 0.485-1.455 0.485-0.485-0.485-1.455-0.485-0.97 0.485-0.485-0.97-0.97-0.97h-0.485v0.485l-0.97 0.97c0.162-0.162 0.485-0.388 0.485 0v0.485l-0.485 0.485-2.424-0.485-0.485-0.485-0.485-0.97h-0.97l-1.455 0.97-0.97-1.939h-1.939l-0.485 1.455h-0.97l-0.485-0.97-0.485-0.485-0.97 0.485v0.97h-1.455v-0.485l-0.97-0.485-0.97 0.485-1.939-0.485-0.485 0.97-0.97 0.97-0.97-0.485h-0.97l-1.455-0.485-0.97 0.97v0.485h-1.939l-1.455 0.97h-0.97l-0.97-0.97-0.485-0.97-1.455 0.97c-0.323 0.162-0.97 0.388-0.97 0s-0.647-1.131-0.97-1.455l-0.485 0.485v1.939l-0.97 0.485-0.485-0.97-0.97 0.97 0.485 0.97v1.455l-0.97 0.485-0.97 1.455-0.97-0.485-0.485-0.485-0.97-0.485-0.485 0.485v0.485h-0.97l-0.485 0.97-0.485-0.485-0.97-0.485v-0.97l-0.97 0.485-0.485-0.485-0.97 0.485v0.485l-0.97 0.97-0.97-0.485 0.485-0.485-1.455-0.485v1.455h-1.455l-0.97-0.485-0.97-0.97-0.485 0.97 0.485 0.97-0.97 0.485-0.97-0.485h-0.97v0.485h-0.97l-0.97 0.97h-0.97l-0.485-0.97-1.939 0.97-0.485-0.485-0.485-0.97-0.485 0.485-0.97 0.485v-0.485c-0.485 0.162-1.455 0.388-1.455 0s-0.323-1.455-0.485-1.939l-0.485 0.97v0.97l-0.485 0.97v0.485l-0.97 0.485-0.485-0.485h-1.939l-0.485 0.97 0.485 0.97h-0.97l0.485 0.97-0.97-0.485-0.97-1.455-0.485 0.485v0.97l0.97 0.485-0.485 0.97h-0.485l-1.455-1.455v0.97l0.485 0.97c-0.323 0.162-0.97 0.388-0.97 0v-0.97h-0.97v0.97l-0.97-0.485-0.485-0.97-0.485 0.97-0.97-0.485h-0.97l-0.485-0.97-1.455 0.485h-1.455l-0.97-0.97-0.485 0.485h-0.485c0.162-0.323 0.388-0.97 0-0.97h-1.455v-0.485l-0.485-0.97h-0.97l-0.485-0.97v0.97l-0.97 0.97-0.485-0.97-1.455-1.455 0.485-0.485v-0.97l-0.97 0.97-0.485-0.485v-0.485l-0.97-0.485 0.485 0.97h-0.97l-0.485-0.485-0.485 0.485-0.97-0.97v0.97h-0.97v-0.97l-0.485-0.485v0.97l-0.97 0.485-0.485-0.485-0.97-0.485v1.455h-0.485l-0.485-0.485-0.485-0.97-0.97 0.485-0.97-0.97-0.97-0.485v0.97l-0.97-0.485-1.455-1.455-0.485-0.97-0.97 0.97h-0.485l-0.485-0.97-0.485 0.97-0.97 0.485v-1.939l-0.485 0.97-0.485 0.485-0.485-0.485v-0.485h-0.97v-0.97l-1.939 0.97-0.485-0.485v-0.97l-0.97 0.97v0.97l-0.485-0.97-1.455 1.455-0.485-0.485-1.939-0.485 0.485 0.485-0.485 0.485-1.455-0.97-0.485 0.485v0.485l-1.455-0.485-0.485-0.97-0.485 0.485 0.485 0.97 1.455 0.485-0.485 0.485v0.97h-0.97v-0.97l-0.97 0.485-0.97-0.97-0.485-1.455-0.485-0.97h-0.97l-0.485-0.97-0.97-0.97-0.485 0.485v0.97l0.485 0.485v0.97l-1.455-1.455-0.485-0.97-0.485 0.97v0.485l-0.485-0.485-0.485-0.97-0.97 0.485-0.485-0.97h-0.97l-0.485 0.97-0.485 0.485-0.485 0.97h-0.97v0.485l0.485 0.485h-0.97l-0.485-0.485-0.485 0.485 0.485 0.485-1.455-0.485v0.97h-0.97v0.485l-0.485 0.485-0.97-0.97-0.485 0.485 0.485 0.485h-0.97l-0.485-0.97v-0.97l-0.485 0.97v0.485h-0.97v-1.455l-0.485 0.97-0.97-0.485v-0.485l-0.97 0.485v-1.455l-0.485-0.485-0.485 0.97-0.485 0.485-0.97-0.97-0.485 0.97h-0.485l-0.485-0.485-0.485 0.485v0.485h-0.485l-0.485-0.97-0.485 0.485v0.485l-0.485-0.485-0.97-0.485v-0.485l-0.485 0.485v0.485h-0.485l-0.485-0.97h-0.485v0.97h-0.97v-0.97h-0.485l-0.485 0.485-0.485-0.97-0.485 0.485v-0.97l-0.485 0.485v0.97l-0.485 0.485-0.485-0.485v-0.97h-0.97l-0.485-0.485-0.485 0.97-0.485-0.485-0.485 0.485-0.485-0.485-0.97-0.485v0.485l-0.485 0.485-0.485 0.97h-0.485v-0.97h-0.485l-0.97 0.97-0.485-0.485-0.97-0.485v0.485l-0.97 0.485 0.485-0.485-0.97-0.485-0.485-0.97h-0.97l0.485 0.485v0.485l-0.97 0.485-0.485 0.485v-0.97l-0.485-0.485-0.97 0.485v0.485l-0.485 0.485-0.485-0.97h-0.97v0.485l0.485 0.97h-0.485l-0.485-0.485-0.97-0.485v0.485l-0.485 0.485-0.485-0.485-0.97 0.485-0.485 0.485-0.97-1.939-0.485 0.97-0.485 0.485h-0.485l-0.97-0.485h-0.485l-0.485 0.97-0.485-0.485-0.485 0.485v0.97h-0.97l-0.485 0.485-0.97-0.97v-0.485l-0.97-0.485-0.97-0.97v0.97l-0.485 0.485-0.485 0.97-0.97-0.97-0.97 0.485 0.485 0.97-0.97 0.485-0.97-0.485v0.97l0.97 0.485v0.97l-0.485 0.485-0.485-0.485-0.97-0.485v0.97l0.485 0.485h-1.455l-0.485-0.485-0.485 0.97-0.485 0.485-0.97-0.485h-0.97l-0.485-1.455-0.97 0.485v-0.97l-0.97 0.485v0.485l-0.485-0.485v-0.485l-0.485-0.485v0.97h-0.485l-0.485-0.97-0.485 0.485v0.97l-0.485 0.485v-0.485l-0.485-0.97-0.485 0.485h-0.485v-0.97h-0.97l-0.485-0.97-0.485 0.97v0.485h-0.485l-0.485-0.97h-0.485v0.485h-0.97v-0.485l-0.97-0.485v0.485h-1.455v0.485l-0.97 0.485v-0.485l-0.485-0.485 0.485-0.485-0.485-0.485h-0.485v0.485h-0.485l-0.97-0.97v0.97l-0.485 0.485-0.97-0.485 0.485-0.485h-0.97v0.97l-0.485 0.485v-0.485l-0.485-0.485-0.485 0.97-0.485-0.97h-0.485v-0.97l-0.485-0.485-0.485-0.97-0.97-0.485v0.485l-0.97-0.485v0.485l-0.485 0.485v0.485l-0.97-0.97-0.485 0.485-0.485-0.485h-0.485l-0.97 0.97-0.485-0.485v-0.485h-0.485v0.485h-0.485l-0.485-1.455v-0.97h-0.485l-0.485 0.97-0.97-0.97v0.485l-0.97 0.485v0.485h-0.485l-0.485-0.485v-0.485l-1.455 1.455-0.97-1.939v1.939l-0.485 0.485v-0.485l-0.485-0.485-0.485-0.97h-0.485l-0.485 0.485h-0.485l-0.485-0.485-0.97 0.97v-1.455l-0.485 0.485v0.97h-0.485l-0.485 0.97-0.485-0.485-0.485-0.97v1.455h-0.97v-0.97l-0.485-0.485-0.485 0.485h-0.485l-0.485-0.485v-0.97h-0.485v0.485l-0.485 0.485-0.485-0.485v-0.485l-0.485 0.485v0.485l-0.485 0.485v-0.485l-0.485-0.485v0.485l-0.485 0.485v0.485l-0.485-0.485v-0.97l-0.485 0.485-0.97 0.485v0.485h-0.485l-0.485-0.485v-0.97h-0.485l-0.485-0.97h-0.485l-0.485 0.485v-0.97l-0.485-0.485-0.97 0.97v-0.97l-0.485-0.485v0.97l-0.485 0.485v-0.97l-0.485 0.485v0.97l-0.97-0.97v-0.485l-0.97-0.485v-0.485h-0.485v0.485l-0.485 0.485-0.485-0.485-0.485 0.97v0.485h-0.485v-0.485l-0.485-0.485-0.485 0.485 0.485 0.485-0.485 0.485-0.485-0.485-0.485-0.97h-0.485l-0.714-0.97-0.256 0.485 1.455 1.455-0.485 0.485v-0.485l-0.97 0.485 0.485 0.485-0.229 0.242-0.256-0.242-0.485-0.485h-0.485l0.485 0.485v0.485l-0.485 0.485v-0.727h-0.701l-0.269 0.727-0.173-0.727-0.312-0.727v1.455l-0.97 0.485v-0.97l-0.244-0.242h-0.725l0.485 0.727v0.485l-0.97-0.97v0.97l0.485 0.485-0.97 0.97v-0.97l-0.485-0.485h-0.485l-0.485 0.485 0.97 0.485-0.485 0.485h-0.485l-0.485-0.485v-0.97l-1.455-0.485 0.485-0.485-0.734-0.242-0.72-0.242-0.485-0.485 0.485-0.485h-0.97l-0.485 0.485h-0.485v-0.485l-0.485 0.485v0.485c-0.162 0.081-0.537 0.242-0.749 0.242s-0.236-0.162-0.221-0.242l-0.485-0.485-0.485 0.485c0 0.081-0.043 0.242-0.214 0.242s-0.252-0.162-0.271-0.242v-0.485l-0.485 0.97v0.97h-0.485v-0.485l-0.485-0.727v1.212l-0.97-0.485v-0.97l-0.485-0.485-0.485 0.485-0.485-0.485v-0.485l-0.97-0.97h-0.97l0.97 0.97v0.485h-0.485l-0.97-0.97v0.97l0.97 0.97h-0.97l-0.485-0.485v0.485l-0.485-0.97v-0.97l-0.97 0.485v0.97c-0.162 0-0.485 0.097-0.485 0.485s-0.323-0.485-0.485-0.97h-0.485v1.455l-0.485-0.485h-0.485v-0.97l-0.485 0.485-0.485 0.97-0.485-0.485v-0.485l-0.485-0.485-0.485 0.485v0.485l-0.97-0.97h-0.485l-0.485 0.485-0.97-0.97-0.485 0.485-0.485-0.97v-0.485h-0.97v0.485l0.485 0.485-0.97 0.485v-0.485h-0.97l-0.485 0.485-0.97-0.485h-0.485l0.485-0.485-0.485-0.485-0.97 0.97h-0.485v-0.97h-0.97l-0.485 0.485h-0.97c-0.388 0-0.162-0.323 0-0.485h-0.97l-0.485 0.485h-0.97l-0.485-0.485v1.455h-1.455v1.939l-0.485-0.97h-0.485v0.485h-1.455l-0.485 0.485-0.485 0.97h-0.485v-0.485h-0.485l-0.485 0.97h-0.485v-0.485l-0.485 0.97v0.485h-0.97l-0.485-0.485h-0.97v0.97h-0.97v-0.97l-0.485 0.97v1.455c0 0.388-0.323-0.485-0.485-0.97l-0.485-0.485 0.485-0.485-0.485-0.485-0.97 0.485v0.485h-0.97v0.485h-0.97l-0.97-0.485-0.485 0.485 0.97 0.485h0.485v0.97h-0.485v0.485h-0.485v-0.97h-1.455v-0.485h-0.97v0.485h-0.485l-0.485-0.485h-0.485v0.97l-0.485-0.485v-0.485h-0.485v0.97l-0.485 0.485-0.97-0.97v0.485l-0.485 0.485h-0.485v-0.485l-0.485-0.485-0.485 0.97c-0.162 0.162-0.582 0.485-0.97 0.485s-0.162-0.323 0-0.485h-0.97l-0.97 0.485v-0.97h-0.97l0.485 0.485v0.485l-0.485-0.485h-0.485v-0.485l-0.97-0.485v0.485h-0.485v-0.97h-0.485v0.97h-0.485v-0.485l-0.485-0.485-0.485 0.485h-0.97c-0.162-0.162-0.582-0.485-0.97-0.485h0.485v-0.97h-0.97l-0.485 0.485h-0.97v-0.97l-0.97 0.485h-0.485v0.97l-0.97 0.485v-0.97h-0.97l-0.485 0.485v-0.97l-0.97-0.97h-0.485v-0.97l-0.485-0.485h-0.485v0.97l-1.939-1.939-1.939-0.485-0.485-0.97-0.97-0.485-1.455 0.485-0.97-0.485-0.485-0.97-1.455 0.97v-0.97l-0.97-0.485-0.97 0.485-1.455-0.97-0.97-0.97-1.455-0.97-0.485-0.97-0.97-0.97v0.97h-0.97l-1.455-0.97-0.485 0.485-0.97-0.485v-0.97l-0.485-0.97-0.97 0.485c-0.485-0.485-1.358-1.551-0.97-1.939s-0.485 0.162-0.97 0.485h-1.455c-0.388 0-0.485-0.323-0.485-0.485l-0.485 0.485-0.97 0.485-0.485-0.97-0.97 0.485v0.97l-0.97 0.485-1.455-1.455h-0.97l-0.485-0.97-1.939-0.97-0.97 0.485-0.97-0.485-0.485-0.485-1.455-0.97-0.97 0.485h-0.97l-0.485-0.485-0.485-0.97-0.485-0.485-0.97 0.97-0.97-0.485h-0.97c-0.388 0-0.485-0.323-0.485-0.485l-0.485-0.485h-0.97l-0.97-0.485-0.485-0.485-0.97 0.485-0.485 0.485-0.485-0.485h-0.97z"></path>
        </symbol>
        <symbol id="icon-Pin" viewBox="0 0 34 34">
            <path
                d="M26.501 8.841c2.443 2.284 3.233 5.409 1.763 6.981s-4.641 0.994-7.084-1.29c-2.443-2.284-3.233-5.409-1.763-6.981s4.641-0.994 7.084 1.29z"></path>
            <path
                d="M9.498 14.359c1.226-1.311 3.394-1.45 5.682-0.585l-2.193 1.812c-1.188 1.271-0.549 3.799 1.427 5.645s4.54 2.313 5.728 1.042l1.932-2.041c1.006 2.217 1.009 4.379-0.212 5.686-1.956 2.091-6.309 1.2-9.722-1.992s-4.596-7.474-2.641-9.566z"></path>
            <path
                d="M15.318 20.386c1.578 1.476 3.591 1.888 4.495 0.921 0.616-0.858 2.131-2.949 3.261-4.455-2.635-1.506-4.235-3.451-4.706-4.235l-4.271 3.347c-0.904 0.967-0.357 2.947 1.221 4.423z"></path>
            <path
                d="M11.779 25.322c-0.471-0.314-1.506-1.129-1.882-1.882l-2.824 3.294-0.502 0.753c-0.557 0.835 0.406 1.846 1.267 1.329l1.117-0.67 2.824-2.824z"></path>
        </symbol>
        <symbol id="icon-Arrow-down" viewBox="0 0 32 32">
            <path
                d="M16 4.5c-0.828 0-1.5 0.672-1.5 1.5v16.189l-3.402-3.656c-0.564-0.606-1.513-0.64-2.119-0.076s-0.641 1.515-0.076 2.121l7.098 7.623 7.098-7.623c0.565-0.606 0.53-1.556-0.076-2.121s-1.555-0.53-2.119 0.076l-3.402 3.656v-16.189c0-0.828-0.672-1.5-1.5-1.5z"></path>
        </symbol>
    </defs>
</svg>